<?xml version="1.0" standalone="no"?>
<!DOCTYPE svg PUBLIC "-//W3C//DTD SVG 20010904//EN"
 "http://www.w3.org/TR/2001/REC-SVG-20010904/DTD/svg10.dtd">
<svg version="1.0" xmlns="http://www.w3.org/2000/svg"
 width="512.000000pt" height="512.000000pt" viewBox="0 0 512.000000 512.000000"
 preserveAspectRatio="xMidYMid meet">
<metadata>
Created by potrace 1.14, written by Peter Selinger 2001-2017
</metadata>
<g transform="translate(0.000000,512.000000) scale(0.100000,-0.100000)"
fill="#000000" stroke="none">
<path d="M2312 5100 c-18 -11 -41 -34 -52 -52 -18 -30 -20 -51 -20 -258 l0
-225 -107 107 c-60 58 -118 111 -130 117 -31 16 -119 14 -151 -3 -39 -21 -179
-166 -191 -199 -15 -40 -14 -81 4 -125 11 -24 110 -131 295 -317 l280 -280 -2
-377 -3 -376 -300 174 c-165 95 -304 175 -309 177 -4 1 -53 168 -107 370 -54
202 -106 379 -115 393 -22 32 -84 64 -126 64 -42 0 -216 -47 -245 -66 -30 -19
-53 -56 -63 -100 -7 -29 -1 -66 26 -172 19 -74 34 -136 32 -138 -2 -1 -78 40
-168 93 -167 96 -208 111 -273 99 -49 -9 -79 -44 -175 -206 -73 -125 -86 -153
-90 -201 -8 -101 8 -117 240 -250 82 -46 148 -86 148 -89 0 -3 -60 -21 -133
-40 -115 -30 -137 -39 -171 -71 -36 -33 -40 -42 -43 -95 -5 -67 34 -221 64
-263 25 -33 81 -61 122 -61 19 0 196 43 393 96 l359 96 222 -128 c122 -70 261
-150 310 -178 48 -28 87 -53 87 -56 0 -3 -39 -28 -87 -56 -49 -28 -188 -108
-310 -178 l-222 -128 -359 96 c-197 53 -374 96 -393 96 -41 0 -97 -28 -122
-61 -23 -32 -67 -192 -67 -247 0 -99 45 -136 218 -181 73 -19 132 -37 132 -40
0 -4 -59 -40 -132 -81 -245 -140 -258 -152 -258 -248 0 -49 8 -66 92 -214 110
-189 125 -203 218 -203 64 0 67 2 230 97 90 53 166 95 168 94 1 -2 -14 -68
-35 -148 l-37 -144 24 -49 c14 -27 36 -57 50 -67 32 -23 193 -68 243 -68 49 0
102 25 127 59 10 15 62 190 117 394 l99 367 303 175 c167 96 305 175 307 175
2 0 4 -170 4 -378 l0 -377 -271 -270 c-149 -149 -279 -287 -290 -307 -21 -41
-24 -92 -8 -135 12 -34 152 -178 193 -200 34 -18 115 -19 148 -2 13 6 69 57
126 112 l102 102 0 -206 c0 -192 1 -207 23 -249 12 -25 37 -55 56 -67 33 -22
42 -23 250 -23 213 0 217 0 252 24 64 44 69 67 69 312 l0 219 108 -107 c59
-58 117 -111 129 -117 27 -14 103 -14 139 -1 29 11 169 142 186 175 20 36 26
84 16 129 -8 40 -35 70 -294 334 l-284 290 2 375 3 375 300 -174 c165 -95 304
-175 309 -176 4 -2 53 -169 107 -371 55 -202 106 -379 116 -393 21 -32 83 -64
125 -64 43 0 216 47 246 66 70 46 77 122 29 300 l-33 120 170 -99 c142 -83
180 -101 223 -105 40 -3 60 0 90 18 45 25 39 17 150 209 74 129 83 150 83 195
0 93 -15 107 -258 246 -73 41 -132 77 -132 80 0 3 60 21 132 39 116 30 138 40
172 72 36 33 40 42 43 95 4 64 -31 214 -61 259 -21 31 -86 65 -126 65 -17 0
-190 -43 -386 -96 -195 -52 -360 -94 -367 -92 -19 5 -617 352 -617 358 0 6
597 353 615 358 6 1 170 -40 365 -93 195 -52 370 -95 388 -95 43 0 104 32 126
66 24 36 66 189 66 242 0 99 -44 136 -218 182 -73 19 -132 37 -132 40 0 3 55
36 123 74 246 140 267 159 267 252 0 45 -9 66 -83 195 -111 192 -105 184 -150
209 -30 18 -50 21 -90 18 -43 -4 -81 -22 -223 -105 l-170 -99 33 120 c48 178
41 254 -29 300 -30 19 -203 66 -246 66 -42 0 -104 -32 -125 -64 -10 -14 -61
-191 -116 -393 -54 -202 -103 -369 -107 -371 -5 -1 -144 -81 -309 -176 l-300
-174 -3 376 -2 376 284 286 c307 308 314 319 301 407 -6 39 -17 56 -88 130
-45 47 -94 91 -109 99 -32 17 -121 18 -151 3 -12 -6 -70 -59 -129 -117 l-108
-107 0 225 c0 207 -2 228 -20 258 -41 67 -60 72 -300 72 -197 0 -218 -2 -248
-20z"/>
</g>
</svg>
